<svg width="22" height="15" viewBox="0 0 22 15" fill="none" xmlns="http://www.w3.org/2000/svg">
<path d="M22 11.3208C22 5.09434 17.05 0 11 0C4.95 0 0 5.09434 0 11.3208C0 12.5943 0.275 13.8679 0.55 15H21.3125C21.725 13.8679 22 12.5943 22 11.3208ZM10.175 2.40566C10.175 1.98113 10.5875 1.5566 11 1.5566C11.4125 1.5566 11.825 1.98113 11.825 2.40566V3.96226C11.825 4.38679 11.4125 4.81132 11 4.81132C10.5875 4.81132 10.175 4.38679 10.175 3.96226V2.40566ZM5.5 8.06604C5.3625 8.49057 4.8125 8.63208 4.5375 8.34906L3.1625 7.5C2.75 7.35849 2.6125 6.79245 2.8875 6.50943C3.1625 6.08491 3.575 5.9434 3.9875 6.22641L5.3625 7.07547C5.6375 7.21698 5.775 7.64151 5.5 8.06604ZM7.8375 5.66038C7.425 5.9434 7.0125 5.80189 6.7375 5.37736L5.9125 3.96226C5.775 3.67924 5.9125 3.11321 6.325 2.9717C6.6 2.68868 7.15 2.83019 7.425 3.25472L8.25 4.66981C8.3875 4.95283 8.25 5.51887 7.8375 5.66038ZM11.1375 13.7264C9.9 13.7264 8.8 12.5943 8.8 11.3208C8.8 10.0472 9.9 8.91509 11.1375 8.91509C11.4125 8.91509 11.825 8.91509 12.1 9.0566L16.775 4.24528C17.05 3.96226 17.6 3.96226 17.875 4.24528C18.15 4.5283 18.15 5.09434 17.875 5.37736L13.2 10.1887C13.475 10.4717 13.475 10.8962 13.475 11.3208C13.475 12.5943 12.5125 13.7264 11.1375 13.7264ZM19.6625 12.1698H18.15C17.7375 12.1698 17.325 11.7453 17.325 11.3208C17.325 10.8962 17.7375 10.4717 18.15 10.4717H19.6625C20.075 10.4717 20.4875 10.8962 20.4875 11.3208C20.4875 11.7453 20.075 12.1698 19.6625 12.1698Z" fill="#696969"/>
</svg>
