<svg width="20" height="20" viewBox="0 0 20 20" fill="none" xmlns="http://www.w3.org/2000/svg">
<path d="M0 1.42857C0 1.04969 0.15051 0.686328 0.418419 0.418419C0.686328 0.15051 1.04969 0 1.42857 0H18.5714C18.9503 0 19.3137 0.15051 19.5816 0.418419C19.8495 0.686328 20 1.04969 20 1.42857V4.28571C20 4.6646 19.8495 5.02796 19.5816 5.29587C19.3137 5.56378 18.9503 5.71429 18.5714 5.71429H1.42857C1.04969 5.71429 0.686328 5.56378 0.418419 5.29587C0.15051 5.02796 0 4.6646 0 4.28571V1.42857ZM0 10C0 9.62112 0.15051 9.25776 0.418419 8.98985C0.686328 8.72194 1.04969 8.57143 1.42857 8.57143H10C10.3789 8.57143 10.7422 8.72194 11.0102 8.98985C11.2781 9.25776 11.4286 9.62112 11.4286 10V18.5714C11.4286 18.9503 11.2781 19.3137 11.0102 19.5816C10.7422 19.8495 10.3789 20 10 20H1.42857C1.04969 20 0.686328 19.8495 0.418419 19.5816C0.15051 19.3137 0 18.9503 0 18.5714V10ZM15.7143 8.57143C15.3354 8.57143 14.972 8.72194 14.7041 8.98985C14.4362 9.25776 14.2857 9.62112 14.2857 10V18.5714C14.2857 18.9503 14.4362 19.3137 14.7041 19.5816C14.972 19.8495 15.3354 20 15.7143 20H18.5714C18.9503 20 19.3137 19.8495 19.5816 19.5816C19.8495 19.3137 20 18.9503 20 18.5714V10C20 9.62112 19.8495 9.25776 19.5816 8.98985C19.3137 8.72194 18.9503 8.57143 18.5714 8.57143H15.7143Z" fill="#696969"/>
</svg>
