<svg width="788" height="454" viewBox="0 0 788 454" fill="none" xmlns="http://www.w3.org/2000/svg" xmlns:xlink="http://www.w3.org/1999/xlink">
<rect x="1" y="1" width="786" height="452" rx="26" fill="white"/>
<rect x="1" y="1" width="786" height="452" rx="26" stroke-width="2"/>
<path d="M144.24 104L130.864 57.92H137.872L147.568 92.768L157.264 57.952L164.304 57.92L174 92.768L183.696 57.92H190.736L177.328 104H170.672L160.784 69.536L150.896 104H144.24ZM207.621 104.96C204.186 104.96 201.167 104.213 198.565 102.72C195.983 101.205 193.967 99.104 192.516 96.416C191.087 93.7067 190.373 90.5707 190.373 87.008C190.373 83.232 191.077 79.9573 192.485 77.184C193.914 74.4107 195.898 72.2667 198.437 70.752C200.975 69.2373 203.93 68.48 207.301 68.48C210.821 68.48 213.818 69.3013 216.293 70.944C218.767 72.5653 220.613 74.88 221.829 77.888C223.066 80.896 223.557 84.4693 223.301 88.608H216.613V86.176C216.57 82.1653 215.802 79.2 214.309 77.28C212.837 75.36 210.586 74.4 207.557 74.4C204.207 74.4 201.69 75.456 200.005 77.568C198.319 79.68 197.477 82.7307 197.477 86.72C197.477 90.5173 198.319 93.4613 200.005 95.552C201.69 97.6213 204.122 98.656 207.301 98.656C209.391 98.656 211.194 98.1867 212.709 97.248C214.245 96.288 215.439 94.9227 216.293 93.152L222.853 95.232C221.509 98.3253 219.471 100.725 216.741 102.432C214.01 104.117 210.97 104.96 207.621 104.96ZM195.301 88.608V83.392H219.972V88.608H195.301ZM231.12 104V56.96H237.808V104H231.12ZM262.202 104.96C258.66 104.96 255.652 104.171 253.178 102.592C250.703 101.013 248.804 98.848 247.482 96.096C246.18 93.344 245.519 90.2187 245.498 86.72C245.519 83.1573 246.202 80.0107 247.546 77.28C248.89 74.528 250.81 72.3733 253.306 70.816C255.802 69.2587 258.799 68.48 262.298 68.48C266.074 68.48 269.295 69.4187 271.962 71.296C274.65 73.1733 276.42 75.744 277.274 79.008L270.618 80.928C269.956 78.9867 268.868 77.4827 267.354 76.416C265.86 75.328 264.143 74.784 262.202 74.784C260.004 74.784 258.202 75.3067 256.794 76.352C255.386 77.376 254.34 78.784 253.658 80.576C252.975 82.368 252.623 84.416 252.602 86.72C252.623 90.2827 253.434 93.1627 255.034 95.36C256.655 97.5573 259.044 98.656 262.202 98.656C264.356 98.656 266.095 98.1653 267.418 97.184C268.762 96.1813 269.786 94.752 270.49 92.896L277.274 94.496C276.143 97.8667 274.276 100.459 271.674 102.272C269.071 104.064 265.914 104.96 262.202 104.96ZM297.863 104.96C294.407 104.96 291.41 104.181 288.871 102.624C286.332 101.067 284.37 98.9227 282.983 96.192C281.618 93.44 280.935 90.272 280.935 86.688C280.935 83.0827 281.639 79.9147 283.047 77.184C284.455 74.432 286.428 72.2987 288.967 70.784C291.506 69.248 294.471 68.48 297.863 68.48C301.319 68.48 304.316 69.2587 306.855 70.816C309.394 72.3733 311.356 74.5173 312.743 77.248C314.13 79.9787 314.823 83.1253 314.823 86.688C314.823 90.2933 314.119 93.472 312.711 96.224C311.324 98.9547 309.362 101.099 306.823 102.656C304.284 104.192 301.298 104.96 297.863 104.96ZM297.863 98.656C301.17 98.656 303.634 97.5467 305.255 95.328C306.898 93.088 307.719 90.208 307.719 86.688C307.719 83.0827 306.887 80.2027 305.223 78.048C303.58 75.872 301.127 74.784 297.863 74.784C295.623 74.784 293.778 75.296 292.327 76.32C290.876 77.3227 289.799 78.72 289.095 80.512C288.391 82.2827 288.039 84.3413 288.039 86.688C288.039 90.3147 288.871 93.216 290.535 95.392C292.199 97.568 294.642 98.656 297.863 98.656ZM363.263 104L363.295 82.464C363.295 79.968 362.655 78.0267 361.375 76.64C360.095 75.232 358.41 74.528 356.319 74.528C355.039 74.528 353.866 74.8267 352.799 75.424C351.754 76 350.9 76.8747 350.239 78.048C349.599 79.2 349.279 80.6507 349.279 82.4L346.047 80.768C346.004 78.336 346.516 76.2027 347.583 74.368C348.671 72.5333 350.143 71.1147 351.999 70.112C353.855 69.088 355.935 68.576 358.239 68.576C361.972 68.576 364.863 69.696 366.911 71.936C368.959 74.176 369.983 77.152 369.983 80.864L369.951 104H363.263ZM321.823 104V69.44L327.775 69.44V79.424H328.543V104H321.823ZM342.559 104L342.591 82.592C342.591 80.0747 341.951 78.1013 340.671 76.672C339.412 75.2427 337.716 74.528 335.583 74.528C333.471 74.528 331.764 75.2533 330.463 76.704C329.183 78.1547 328.543 80.0533 328.543 82.4L325.343 80.352C325.343 78.0907 325.887 76.0747 326.975 74.304C328.063 72.5333 329.535 71.136 331.391 70.112C333.247 69.088 335.348 68.576 337.695 68.576C340.148 68.576 342.239 69.0987 343.967 70.144C345.695 71.168 347.007 72.608 347.903 74.464C348.82 76.32 349.279 78.4747 349.279 80.928L349.247 104H342.559ZM393.183 104.96C389.748 104.96 386.73 104.213 384.127 102.72C381.546 101.205 379.53 99.104 378.079 96.416C376.65 93.7067 375.935 90.5707 375.935 87.008C375.935 83.232 376.639 79.9573 378.047 77.184C379.476 74.4107 381.46 72.2667 383.999 70.752C386.538 69.2373 389.492 68.48 392.863 68.48C396.383 68.48 399.38 69.3013 401.855 70.944C404.33 72.5653 406.175 74.88 407.391 77.888C408.628 80.896 409.119 84.4693 408.863 88.608H402.175V86.176C402.132 82.1653 401.364 79.2 399.871 77.28C398.399 75.36 396.148 74.4 393.119 74.4C389.77 74.4 387.252 75.456 385.567 77.568C383.882 79.68 383.039 82.7307 383.039 86.72C383.039 90.5173 383.882 93.4613 385.567 95.552C387.252 97.6213 389.684 98.656 392.863 98.656C394.954 98.656 396.756 98.1867 398.271 97.248C399.807 96.288 401.002 94.9227 401.855 93.152L408.415 95.232C407.071 98.3253 405.034 100.725 402.303 102.432C399.572 104.117 396.532 104.96 393.183 104.96ZM380.863 88.608V83.392H405.535V88.608H380.863ZM414.153 111.648L414.569 108.672C415.486 108.736 416.201 108.565 416.713 108.16C417.225 107.755 417.566 107.189 417.737 106.464C417.907 105.739 417.939 104.917 417.833 104H414.153V96.288H421.225V104.64C421.225 107.157 420.617 109.056 419.401 110.336C418.206 111.616 416.457 112.053 414.153 111.648ZM442.968 104L457.944 57.92H467.576L482.552 104H475.608L461.816 61.952H463.544L449.911 104H442.968ZM450.744 93.6V87.328H474.808V93.6H450.744ZM502.021 104.96C498.799 104.96 496.015 104.16 493.669 102.56C491.343 100.96 489.541 98.784 488.261 96.032C487.002 93.2587 486.373 90.144 486.373 86.688C486.373 83.2107 487.013 80.1067 488.293 77.376C489.573 74.624 491.386 72.4587 493.733 70.88C496.101 69.28 498.906 68.48 502.149 68.48C505.413 68.48 508.154 69.28 510.373 70.88C512.613 72.4587 514.298 74.624 515.429 77.376C516.581 80.128 517.157 83.232 517.157 86.688C517.157 90.144 516.581 93.248 515.429 96C514.277 98.752 512.581 100.939 510.341 102.56C508.101 104.16 505.327 104.96 502.021 104.96ZM502.949 98.912C505.146 98.912 506.938 98.3893 508.325 97.344C509.711 96.2987 510.725 94.8587 511.365 93.024C512.005 91.1893 512.325 89.0773 512.325 86.688C512.325 84.2987 511.994 82.1867 511.333 80.352C510.693 78.5173 509.69 77.088 508.325 76.064C506.981 75.04 505.263 74.528 503.173 74.528C500.954 74.528 499.13 75.072 497.701 76.16C496.271 77.248 495.205 78.7093 494.501 80.544C493.818 82.3787 493.477 84.4267 493.477 86.688C493.477 88.9707 493.818 91.04 494.501 92.896C495.205 94.7307 496.25 96.192 497.637 97.28C499.045 98.368 500.815 98.912 502.949 98.912ZM512.325 104V79.136H511.557V57.92H518.277V104L512.325 104ZM568.638 104L568.67 82.464C568.67 79.968 568.03 78.0267 566.75 76.64C565.47 75.232 563.785 74.528 561.694 74.528C560.414 74.528 559.241 74.8267 558.174 75.424C557.129 76 556.275 76.8747 555.614 78.048C554.974 79.2 554.654 80.6507 554.654 82.4L551.422 80.768C551.379 78.336 551.891 76.2027 552.958 74.368C554.046 72.5333 555.518 71.1147 557.374 70.112C559.23 69.088 561.31 68.576 563.614 68.576C567.347 68.576 570.238 69.696 572.286 71.936C574.334 74.176 575.358 77.152 575.358 80.864L575.326 104H568.638ZM527.198 104V69.44H533.15V79.424H533.918V104H527.198ZM547.934 104L547.966 82.592C547.966 80.0747 547.326 78.1013 546.046 76.672C544.787 75.2427 543.091 74.528 540.958 74.528C538.846 74.528 537.139 75.2533 535.838 76.704C534.558 78.1547 533.918 80.0533 533.918 82.4L530.718 80.352C530.718 78.0907 531.262 76.0747 532.35 74.304C533.438 72.5333 534.91 71.136 536.766 70.112C538.622 69.088 540.723 68.576 543.07 68.576C545.523 68.576 547.614 69.0987 549.342 70.144C551.07 71.168 552.382 72.608 553.278 74.464C554.195 76.32 554.654 78.4747 554.654 80.928L554.622 104H547.934ZM584.308 63.776V57.28H590.996V63.776H584.308ZM584.308 104V69.44H590.996V104H584.308ZM624.861 104V87.008C624.861 85.664 624.744 84.288 624.509 82.88C624.296 81.4507 623.869 80.128 623.229 78.912C622.61 77.696 621.725 76.7147 620.573 75.968C619.442 75.2213 617.96 74.848 616.125 74.848C614.93 74.848 613.8 75.0507 612.733 75.456C611.666 75.84 610.728 76.4693 609.917 77.344C609.128 78.2187 608.498 79.3707 608.029 80.8C607.581 82.2293 607.357 83.968 607.357 86.016L603.197 84.448C603.197 81.312 603.784 78.5493 604.957 76.16C606.13 73.7493 607.816 71.872 610.013 70.528C612.21 69.184 614.866 68.512 617.981 68.512C620.37 68.512 622.376 68.896 623.997 69.664C625.618 70.432 626.93 71.4453 627.933 72.704C628.957 73.9413 629.736 75.296 630.269 76.768C630.802 78.24 631.165 79.68 631.357 81.088C631.549 82.496 631.645 83.7333 631.645 84.8V104H624.861ZM600.573 104V69.44H606.557V79.424H607.357V104H600.573ZM643.18 104V97.504H649.868V104H643.18ZM643.18 92.48V57.92H649.868V92.48H643.18Z" fill="#7C887E"/>
<rect x="52.5" y="155.5" width="683" height="51" rx="25.5" stroke="#7C887E"/>
<path d="M69.4 188.5V174.1H70.88L78.81 185.9V174.1H80.29V188.5H78.81L70.88 176.69V188.5H69.4ZM86.1814 188.8C85.3681 188.8 84.6847 188.653 84.1314 188.36C83.5847 188.067 83.1747 187.677 82.9014 187.19C82.6281 186.703 82.4914 186.173 82.4914 185.6C82.4914 185.013 82.6081 184.513 82.8414 184.1C83.0814 183.68 83.4047 183.337 83.8114 183.07C84.2247 182.803 84.7014 182.6 85.2414 182.46C85.7881 182.327 86.3914 182.21 87.0514 182.11C87.7181 182.003 88.3681 181.913 89.0014 181.84C89.6414 181.76 90.2014 181.683 90.6814 181.61L90.1614 181.93C90.1814 180.863 89.9747 180.073 89.5414 179.56C89.1081 179.047 88.3547 178.79 87.2814 178.79C86.5414 178.79 85.9147 178.957 85.4014 179.29C84.8947 179.623 84.5381 180.15 84.3314 180.87L82.9014 180.45C83.1481 179.483 83.6447 178.733 84.3914 178.2C85.1381 177.667 86.1081 177.4 87.3014 177.4C88.2881 177.4 89.1247 177.587 89.8114 177.96C90.5047 178.327 90.9947 178.86 91.2814 179.56C91.4147 179.873 91.5014 180.223 91.5414 180.61C91.5814 180.997 91.6014 181.39 91.6014 181.79V188.5H90.2914V185.79L90.6714 185.95C90.3047 186.877 89.7347 187.583 88.9614 188.07C88.1881 188.557 87.2614 188.8 86.1814 188.8ZM86.3514 187.53C87.0381 187.53 87.6381 187.407 88.1514 187.16C88.6647 186.913 89.0781 186.577 89.3914 186.15C89.7047 185.717 89.9081 185.23 90.0014 184.69C90.0814 184.343 90.1247 183.963 90.1314 183.55C90.1381 183.13 90.1414 182.817 90.1414 182.61L90.7014 182.9C90.2014 182.967 89.6581 183.033 89.0714 183.1C88.4914 183.167 87.9181 183.243 87.3514 183.33C86.7914 183.417 86.2847 183.52 85.8314 183.64C85.5247 183.727 85.2281 183.85 84.9414 184.01C84.6547 184.163 84.4181 184.37 84.2314 184.63C84.0514 184.89 83.9614 185.213 83.9614 185.6C83.9614 185.913 84.0381 186.217 84.1914 186.51C84.3514 186.803 84.6047 187.047 84.9514 187.24C85.3047 187.433 85.7714 187.53 86.3514 187.53ZM107.085 188.5L107.095 181.41C107.095 180.577 106.861 179.923 106.395 179.45C105.935 178.97 105.348 178.73 104.635 178.73C104.228 178.73 103.831 178.823 103.445 179.01C103.058 179.197 102.738 179.497 102.485 179.91C102.238 180.323 102.115 180.863 102.115 181.53L101.245 181.28C101.225 180.507 101.375 179.83 101.695 179.25C102.021 178.67 102.468 178.22 103.035 177.9C103.608 177.573 104.255 177.41 104.975 177.41C106.061 177.41 106.931 177.747 107.585 178.42C108.238 179.087 108.565 179.99 108.565 181.13L108.555 188.5H107.085ZM94.1947 188.5V177.7H95.5147V180.36H95.6747V188.5H94.1947ZM100.655 188.5L100.665 181.51C100.665 180.65 100.435 179.973 99.9747 179.48C99.5214 178.98 98.9214 178.73 98.1747 178.73C97.428 178.73 96.8247 178.987 96.3647 179.5C95.9047 180.007 95.6747 180.683 95.6747 181.53L94.7947 181.05C94.7947 180.357 94.958 179.737 95.2847 179.19C95.6114 178.637 96.058 178.203 96.6247 177.89C97.1914 177.57 97.8347 177.41 98.5547 177.41C99.2414 177.41 99.8514 177.557 100.385 177.85C100.925 178.143 101.348 178.57 101.655 179.13C101.961 179.69 102.115 180.37 102.115 181.17L102.105 188.5H100.655ZM114.248 188.8C113.434 188.8 112.751 188.653 112.198 188.36C111.651 188.067 111.241 187.677 110.968 187.19C110.694 186.703 110.558 186.173 110.558 185.6C110.558 185.013 110.674 184.513 110.908 184.1C111.148 183.68 111.471 183.337 111.878 183.07C112.291 182.803 112.768 182.6 113.308 182.46C113.854 182.327 114.458 182.21 115.118 182.11C115.784 182.003 116.434 181.913 117.068 181.84C117.708 181.76 118.268 181.683 118.748 181.61L118.228 181.93C118.248 180.863 118.041 180.073 117.608 179.56C117.174 179.047 116.421 178.79 115.348 178.79C114.608 178.79 113.981 178.957 113.468 179.29C112.961 179.623 112.604 180.15 112.398 180.87L110.968 180.45C111.214 179.483 111.711 178.733 112.458 178.2C113.204 177.667 114.174 177.4 115.368 177.4C116.354 177.4 117.191 177.587 117.878 177.96C118.571 178.327 119.061 178.86 119.348 179.56C119.481 179.873 119.568 180.223 119.608 180.61C119.648 180.997 119.668 181.39 119.668 181.79V188.5H118.358V185.79L118.738 185.95C118.371 186.877 117.801 187.583 117.028 188.07C116.254 188.557 115.328 188.8 114.248 188.8ZM114.418 187.53C115.104 187.53 115.704 187.407 116.218 187.16C116.731 186.913 117.144 186.577 117.458 186.15C117.771 185.717 117.974 185.23 118.068 184.69C118.148 184.343 118.191 183.963 118.198 183.55C118.204 183.13 118.208 182.817 118.208 182.61L118.768 182.9C118.268 182.967 117.724 183.033 117.138 183.1C116.558 183.167 115.984 183.243 115.418 183.33C114.858 183.417 114.351 183.52 113.898 183.64C113.591 183.727 113.294 183.85 113.008 184.01C112.721 184.163 112.484 184.37 112.298 184.63C112.118 184.89 112.028 185.213 112.028 185.6C112.028 185.913 112.104 186.217 112.258 186.51C112.418 186.803 112.671 187.047 113.018 187.24C113.371 187.433 113.838 187.53 114.418 187.53ZM126.475 188.5V174.1H127.945V187.09H134.785V188.5H126.475ZM141.06 188.8C140.007 188.8 139.093 188.567 138.32 188.1C137.553 187.633 136.957 186.977 136.53 186.13C136.103 185.283 135.89 184.29 135.89 183.15C135.89 181.97 136.1 180.95 136.52 180.09C136.94 179.23 137.53 178.567 138.29 178.1C139.057 177.633 139.96 177.4 141 177.4C142.067 177.4 142.977 177.647 143.73 178.14C144.483 178.627 145.053 179.327 145.44 180.24C145.827 181.153 146.003 182.243 145.97 183.51H144.47V182.99C144.443 181.59 144.14 180.533 143.56 179.82C142.987 179.107 142.147 178.75 141.04 178.75C139.88 178.75 138.99 179.127 138.37 179.88C137.757 180.633 137.45 181.707 137.45 183.1C137.45 184.46 137.757 185.517 138.37 186.27C138.99 187.017 139.867 187.39 141 187.39C141.773 187.39 142.447 187.213 143.02 186.86C143.6 186.5 144.057 185.983 144.39 185.31L145.76 185.84C145.333 186.78 144.703 187.51 143.87 188.03C143.043 188.543 142.107 188.8 141.06 188.8ZM136.93 183.51V182.28H145.18V183.51H136.93ZM155.696 188.5V182.99C155.696 182.39 155.639 181.84 155.526 181.34C155.413 180.833 155.229 180.393 154.976 180.02C154.729 179.64 154.406 179.347 154.006 179.14C153.613 178.933 153.133 178.83 152.566 178.83C152.046 178.83 151.586 178.92 151.186 179.1C150.793 179.28 150.459 179.54 150.186 179.88C149.919 180.213 149.716 180.62 149.576 181.1C149.436 181.58 149.366 182.127 149.366 182.74L148.326 182.51C148.326 181.403 148.519 180.473 148.906 179.72C149.293 178.967 149.826 178.397 150.506 178.01C151.186 177.623 151.966 177.43 152.846 177.43C153.493 177.43 154.056 177.53 154.536 177.73C155.023 177.93 155.433 178.2 155.766 178.54C156.106 178.88 156.379 179.27 156.586 179.71C156.793 180.143 156.943 180.607 157.036 181.1C157.129 181.587 157.176 182.073 157.176 182.56V188.5H155.696ZM147.886 188.5V177.7H149.216V180.36H149.366V188.5H147.886ZM164.061 193.6C163.508 193.6 162.961 193.517 162.421 193.35C161.888 193.19 161.394 192.933 160.941 192.58C160.488 192.233 160.108 191.78 159.801 191.22L161.131 190.48C161.431 191.08 161.851 191.51 162.391 191.77C162.938 192.037 163.494 192.17 164.061 192.17C164.841 192.17 165.471 192.023 165.951 191.73C166.438 191.443 166.791 191.017 167.011 190.45C167.231 189.883 167.338 189.177 167.331 188.33V185.45H167.501V177.7H168.811V188.35C168.811 188.657 168.801 188.95 168.781 189.23C168.768 189.517 168.738 189.797 168.691 190.07C168.564 190.877 168.301 191.54 167.901 192.06C167.508 192.58 166.988 192.967 166.341 193.22C165.701 193.473 164.941 193.6 164.061 193.6ZM163.961 188.8C162.954 188.8 162.094 188.55 161.381 188.05C160.668 187.543 160.121 186.86 159.741 186C159.361 185.14 159.171 184.17 159.171 183.09C159.171 182.017 159.358 181.05 159.731 180.19C160.111 179.33 160.654 178.65 161.361 178.15C162.068 177.65 162.914 177.4 163.901 177.4C164.914 177.4 165.768 177.647 166.461 178.14C167.154 178.633 167.678 179.31 168.031 180.17C168.391 181.023 168.571 181.997 168.571 183.09C168.571 184.163 168.394 185.133 168.041 186C167.688 186.86 167.168 187.543 166.481 188.05C165.794 188.55 164.954 188.8 163.961 188.8ZM164.111 187.43C164.878 187.43 165.511 187.243 166.011 186.87C166.511 186.497 166.884 185.983 167.131 185.33C167.378 184.67 167.501 183.923 167.501 183.09C167.501 182.243 167.378 181.497 167.131 180.85C166.884 180.197 166.511 179.687 166.011 179.32C165.518 178.953 164.894 178.77 164.141 178.77C163.368 178.77 162.728 178.96 162.221 179.34C161.714 179.72 161.338 180.237 161.091 180.89C160.851 181.543 160.731 182.277 160.731 183.09C160.731 183.91 160.854 184.65 161.101 185.31C161.354 185.963 161.731 186.48 162.231 186.86C162.731 187.24 163.358 187.43 164.111 187.43ZM171.597 188.5L171.607 174.1H173.087V182.9L177.907 177.7H179.867L174.807 183.1L180.527 188.5H178.387L173.087 183.3V188.5H171.597ZM184.619 188.8C183.806 188.8 183.122 188.653 182.569 188.36C182.022 188.067 181.612 187.677 181.339 187.19C181.066 186.703 180.929 186.173 180.929 185.6C180.929 185.013 181.046 184.513 181.279 184.1C181.519 183.68 181.842 183.337 182.249 183.07C182.662 182.803 183.139 182.6 183.679 182.46C184.226 182.327 184.829 182.21 185.489 182.11C186.156 182.003 186.806 181.913 187.439 181.84C188.079 181.76 188.639 181.683 189.119 181.61L188.599 181.93C188.619 180.863 188.412 180.073 187.979 179.56C187.546 179.047 186.792 178.79 185.719 178.79C184.979 178.79 184.352 178.957 183.839 179.29C183.332 179.623 182.976 180.15 182.769 180.87L181.339 180.45C181.586 179.483 182.082 178.733 182.829 178.2C183.576 177.667 184.546 177.4 185.739 177.4C186.726 177.4 187.562 177.587 188.249 177.96C188.942 178.327 189.432 178.86 189.719 179.56C189.852 179.873 189.939 180.223 189.979 180.61C190.019 180.997 190.039 181.39 190.039 181.79V188.5H188.729V185.79L189.109 185.95C188.742 186.877 188.172 187.583 187.399 188.07C186.626 188.557 185.699 188.8 184.619 188.8ZM184.789 187.53C185.476 187.53 186.076 187.407 186.589 187.16C187.102 186.913 187.516 186.577 187.829 186.15C188.142 185.717 188.346 185.23 188.439 184.69C188.519 184.343 188.562 183.963 188.569 183.55C188.576 183.13 188.579 182.817 188.579 182.61L189.139 182.9C188.639 182.967 188.096 183.033 187.509 183.1C186.929 183.167 186.356 183.243 185.789 183.33C185.229 183.417 184.722 183.52 184.269 183.64C183.962 183.727 183.666 183.85 183.379 184.01C183.092 184.163 182.856 184.37 182.669 184.63C182.489 184.89 182.399 185.213 182.399 185.6C182.399 185.913 182.476 186.217 182.629 186.51C182.789 186.803 183.042 187.047 183.389 187.24C183.742 187.433 184.209 187.53 184.789 187.53ZM197.492 188.8C196.499 188.8 195.659 188.55 194.972 188.05C194.286 187.543 193.766 186.86 193.412 186C193.059 185.133 192.882 184.163 192.882 183.09C192.882 181.997 193.059 181.023 193.412 180.17C193.772 179.31 194.299 178.633 194.992 178.14C195.686 177.647 196.539 177.4 197.552 177.4C198.539 177.4 199.386 177.65 200.092 178.15C200.799 178.65 201.339 179.33 201.712 180.19C202.092 181.05 202.282 182.017 202.282 183.09C202.282 184.17 202.092 185.14 201.712 186C201.332 186.86 200.786 187.543 200.072 188.05C199.359 188.55 198.499 188.8 197.492 188.8ZM192.632 193.3V177.7H193.952V185.83H194.112V193.3H192.632ZM197.342 187.43C198.096 187.43 198.722 187.24 199.222 186.86C199.722 186.48 200.096 185.963 200.342 185.31C200.596 184.65 200.722 183.91 200.722 183.09C200.722 182.277 200.599 181.543 200.352 180.89C200.106 180.237 199.729 179.72 199.222 179.34C198.722 178.96 198.086 178.77 197.312 178.77C196.559 178.77 195.932 178.953 195.432 179.32C194.939 179.687 194.569 180.197 194.322 180.85C194.076 181.497 193.952 182.243 193.952 183.09C193.952 183.923 194.076 184.67 194.322 185.33C194.569 185.983 194.942 186.497 195.442 186.87C195.942 187.243 196.576 187.43 197.342 187.43Z" fill="#7C887E"/>
<rect x="52.5" y="239.5" width="683" height="51" rx="25.5" stroke="#7C887E"/>
<path d="M69.4 272.5V258.1H74.96C75.1 258.1 75.2567 258.107 75.43 258.12C75.61 258.127 75.79 258.147 75.97 258.18C76.7233 258.293 77.36 258.557 77.88 258.97C78.4067 259.377 78.8033 259.89 79.07 260.51C79.3433 261.13 79.48 261.817 79.48 262.57C79.48 263.317 79.3433 264 79.07 264.62C78.7967 265.24 78.3967 265.757 77.87 266.17C77.35 266.577 76.7167 266.837 75.97 266.95C75.79 266.977 75.61 266.997 75.43 267.01C75.2567 267.023 75.1 267.03 74.96 267.03H70.87V272.5H69.4ZM70.87 265.63H74.92C75.04 265.63 75.18 265.623 75.34 265.61C75.5 265.597 75.6567 265.573 75.81 265.54C76.3033 265.433 76.7067 265.23 77.02 264.93C77.34 264.63 77.5767 264.273 77.73 263.86C77.89 263.447 77.97 263.017 77.97 262.57C77.97 262.123 77.89 261.693 77.73 261.28C77.5767 260.86 77.34 260.5 77.02 260.2C76.7067 259.9 76.3033 259.697 75.81 259.59C75.6567 259.557 75.5 259.537 75.34 259.53C75.18 259.517 75.04 259.51 74.92 259.51H70.87V265.63ZM84.0916 272.8C83.2782 272.8 82.5949 272.653 82.0416 272.36C81.4949 272.067 81.0849 271.677 80.8116 271.19C80.5382 270.703 80.4016 270.173 80.4016 269.6C80.4016 269.013 80.5182 268.513 80.7516 268.1C80.9916 267.68 81.3149 267.337 81.7216 267.07C82.1349 266.803 82.6116 266.6 83.1516 266.46C83.6982 266.327 84.3016 266.21 84.9616 266.11C85.6282 266.003 86.2782 265.913 86.9116 265.84C87.5516 265.76 88.1116 265.683 88.5916 265.61L88.0716 265.93C88.0916 264.863 87.8849 264.073 87.4516 263.56C87.0182 263.047 86.2649 262.79 85.1916 262.79C84.4516 262.79 83.8249 262.957 83.3116 263.29C82.8049 263.623 82.4482 264.15 82.2416 264.87L80.8116 264.45C81.0582 263.483 81.5549 262.733 82.3016 262.2C83.0482 261.667 84.0182 261.4 85.2116 261.4C86.1982 261.4 87.0349 261.587 87.7216 261.96C88.4149 262.327 88.9049 262.86 89.1916 263.56C89.3249 263.873 89.4116 264.223 89.4516 264.61C89.4916 264.997 89.5116 265.39 89.5116 265.79V272.5H88.2016V269.79L88.5816 269.95C88.2149 270.877 87.6449 271.583 86.8716 272.07C86.0982 272.557 85.1716 272.8 84.0916 272.8ZM84.2616 271.53C84.9482 271.53 85.5482 271.407 86.0616 271.16C86.5749 270.913 86.9882 270.577 87.3016 270.15C87.6149 269.717 87.8182 269.23 87.9116 268.69C87.9916 268.343 88.0349 267.963 88.0416 267.55C88.0482 267.13 88.0516 266.817 88.0516 266.61L88.6116 266.9C88.1116 266.967 87.5682 267.033 86.9816 267.1C86.4016 267.167 85.8282 267.243 85.2616 267.33C84.7016 267.417 84.1949 267.52 83.7416 267.64C83.4349 267.727 83.1382 267.85 82.8516 268.01C82.5649 268.163 82.3282 268.37 82.1416 268.63C81.9616 268.89 81.8716 269.213 81.8716 269.6C81.8716 269.913 81.9482 270.217 82.1016 270.51C82.2616 270.803 82.5149 271.047 82.8616 271.24C83.2149 271.433 83.6816 271.53 84.2616 271.53ZM96.1448 272.79C94.8782 272.79 93.8348 272.517 93.0148 271.97C92.2015 271.423 91.7015 270.663 91.5148 269.69L93.0148 269.44C93.1748 270.053 93.5382 270.543 94.1048 270.91C94.6782 271.27 95.3848 271.45 96.2248 271.45C97.0448 271.45 97.6915 271.28 98.1648 270.94C98.6382 270.593 98.8748 270.123 98.8748 269.53C98.8748 269.197 98.7982 268.927 98.6448 268.72C98.4982 268.507 98.1948 268.31 97.7348 268.13C97.2748 267.95 96.5882 267.737 95.6748 267.49C94.6948 267.223 93.9282 266.957 93.3748 266.69C92.8215 266.423 92.4282 266.117 92.1948 265.77C91.9615 265.417 91.8448 264.987 91.8448 264.48C91.8448 263.867 92.0182 263.33 92.3648 262.87C92.7115 262.403 93.1915 262.043 93.8048 261.79C94.4182 261.53 95.1315 261.4 95.9448 261.4C96.7582 261.4 97.4848 261.533 98.1248 261.8C98.7715 262.06 99.2915 262.427 99.6848 262.9C100.078 263.373 100.312 263.923 100.385 264.55L98.8848 264.82C98.7848 264.187 98.4682 263.687 97.9348 263.32C97.4082 262.947 96.7382 262.753 95.9248 262.74C95.1582 262.72 94.5348 262.867 94.0548 263.18C93.5748 263.487 93.3348 263.897 93.3348 264.41C93.3348 264.697 93.4215 264.943 93.5948 265.15C93.7682 265.35 94.0815 265.54 94.5348 265.72C94.9948 265.9 95.6482 266.097 96.4948 266.31C97.4882 266.563 98.2682 266.83 98.8348 267.11C99.4015 267.39 99.8048 267.72 100.045 268.1C100.285 268.48 100.405 268.95 100.405 269.51C100.405 270.53 100.025 271.333 99.2648 271.92C98.5115 272.5 97.4715 272.79 96.1448 272.79ZM106.653 272.79C105.386 272.79 104.343 272.517 103.523 271.97C102.709 271.423 102.209 270.663 102.023 269.69L103.523 269.44C103.683 270.053 104.046 270.543 104.613 270.91C105.186 271.27 105.893 271.45 106.733 271.45C107.553 271.45 108.199 271.28 108.673 270.94C109.146 270.593 109.383 270.123 109.383 269.53C109.383 269.197 109.306 268.927 109.153 268.72C109.006 268.507 108.703 268.31 108.243 268.13C107.783 267.95 107.096 267.737 106.183 267.49C105.203 267.223 104.436 266.957 103.883 266.69C103.329 266.423 102.936 266.117 102.703 265.77C102.469 265.417 102.353 264.987 102.353 264.48C102.353 263.867 102.526 263.33 102.873 262.87C103.219 262.403 103.699 262.043 104.313 261.79C104.926 261.53 105.639 261.4 106.453 261.4C107.266 261.4 107.993 261.533 108.633 261.8C109.279 262.06 109.799 262.427 110.193 262.9C110.586 263.373 110.819 263.923 110.893 264.55L109.393 264.82C109.293 264.187 108.976 263.687 108.443 263.32C107.916 262.947 107.246 262.753 106.433 262.74C105.666 262.72 105.043 262.867 104.563 263.18C104.083 263.487 103.843 263.897 103.843 264.41C103.843 264.697 103.929 264.943 104.103 265.15C104.276 265.35 104.589 265.54 105.043 265.72C105.503 265.9 106.156 266.097 107.003 266.31C107.996 266.563 108.776 266.83 109.343 267.11C109.909 267.39 110.313 267.72 110.553 268.1C110.793 268.48 110.913 268.95 110.913 269.51C110.913 270.53 110.533 271.333 109.773 271.92C109.019 272.5 107.979 272.79 106.653 272.79ZM115.04 272.5L111.74 261.69L113.21 261.7L115.77 270.09L118.34 261.7H119.68L122.25 270.09L124.83 261.7H126.29L122.99 272.5H121.71L119.01 263.9L116.32 272.5H115.04ZM132.211 272.8C131.137 272.8 130.221 272.557 129.461 272.07C128.701 271.583 128.117 270.91 127.711 270.05C127.304 269.19 127.101 268.203 127.101 267.09C127.101 265.957 127.307 264.963 127.721 264.11C128.134 263.257 128.721 262.593 129.481 262.12C130.247 261.64 131.157 261.4 132.211 261.4C133.291 261.4 134.211 261.643 134.971 262.13C135.737 262.61 136.321 263.28 136.721 264.14C137.127 264.993 137.331 265.977 137.331 267.09C137.331 268.223 137.127 269.22 136.721 270.08C136.314 270.933 135.727 271.6 134.961 272.08C134.194 272.56 133.277 272.8 132.211 272.8ZM132.211 271.39C133.411 271.39 134.304 270.993 134.891 270.2C135.477 269.4 135.771 268.363 135.771 267.09C135.771 265.783 135.474 264.743 134.881 263.97C134.294 263.197 133.404 262.81 132.211 262.81C131.404 262.81 130.737 262.993 130.211 263.36C129.691 263.72 129.301 264.223 129.041 264.87C128.787 265.51 128.661 266.25 128.661 267.09C128.661 268.39 128.961 269.433 129.561 270.22C130.161 271 131.044 271.39 132.211 271.39ZM139.537 272.5V261.7H140.857V264.3L140.597 263.96C140.717 263.64 140.873 263.347 141.067 263.08C141.26 262.807 141.47 262.583 141.697 262.41C141.977 262.163 142.303 261.977 142.677 261.85C143.05 261.717 143.427 261.64 143.807 261.62C144.187 261.593 144.533 261.62 144.847 261.7V263.08C144.453 262.98 144.023 262.957 143.557 263.01C143.09 263.063 142.66 263.25 142.267 263.57C141.907 263.85 141.637 264.187 141.457 264.58C141.277 264.967 141.157 265.38 141.097 265.82C141.037 266.253 141.007 266.683 141.007 267.11V272.5H139.537ZM150.738 272.8C149.732 272.8 148.872 272.55 148.158 272.05C147.445 271.543 146.898 270.86 146.518 270C146.138 269.14 145.948 268.17 145.948 267.09C145.948 266.017 146.135 265.05 146.508 264.19C146.888 263.33 147.432 262.65 148.138 262.15C148.845 261.65 149.692 261.4 150.678 261.4C151.692 261.4 152.545 261.647 153.238 262.14C153.932 262.633 154.455 263.31 154.808 264.17C155.168 265.023 155.348 265.997 155.348 267.09C155.348 268.163 155.172 269.133 154.818 270C154.465 270.86 153.945 271.543 153.258 272.05C152.572 272.55 151.732 272.8 150.738 272.8ZM150.888 271.43C151.655 271.43 152.288 271.243 152.788 270.87C153.288 270.497 153.662 269.983 153.908 269.33C154.155 268.67 154.278 267.923 154.278 267.09C154.278 266.243 154.155 265.497 153.908 264.85C153.662 264.197 153.288 263.687 152.788 263.32C152.295 262.953 151.672 262.77 150.918 262.77C150.145 262.77 149.505 262.96 148.998 263.34C148.492 263.72 148.115 264.237 147.868 264.89C147.628 265.543 147.508 266.277 147.508 267.09C147.508 267.91 147.632 268.65 147.878 269.31C148.132 269.963 148.508 270.48 149.008 270.86C149.508 271.24 150.135 271.43 150.888 271.43ZM154.278 272.5V264.37H154.118V258.1H155.598V272.5H154.278Z" fill="#7C887E"/>
<rect x="52" y="323" width="684" height="48" rx="24" fill="#34A853"/>
<path d="M366.6 354.5V340.1H369.01V352.24H375.37V354.5H366.6ZM381.834 354.8C380.754 354.8 379.811 354.557 379.004 354.07C378.197 353.583 377.571 352.913 377.124 352.06C376.684 351.2 376.464 350.213 376.464 349.1C376.464 347.967 376.691 346.973 377.144 346.12C377.597 345.267 378.227 344.6 379.034 344.12C379.841 343.64 380.774 343.4 381.834 343.4C382.921 343.4 383.867 343.643 384.674 344.13C385.481 344.617 386.107 345.29 386.554 346.15C387.001 347.003 387.224 347.987 387.224 349.1C387.224 350.22 386.997 351.21 386.544 352.07C386.097 352.923 385.471 353.593 384.664 354.08C383.857 354.56 382.914 354.8 381.834 354.8ZM381.834 352.54C382.794 352.54 383.507 352.22 383.974 351.58C384.441 350.94 384.674 350.113 384.674 349.1C384.674 348.053 384.437 347.22 383.964 346.6C383.491 345.973 382.781 345.66 381.834 345.66C381.187 345.66 380.654 345.807 380.234 346.1C379.821 346.387 379.514 346.79 379.314 347.31C379.114 347.823 379.014 348.42 379.014 349.1C379.014 350.147 379.251 350.983 379.724 351.61C380.204 352.23 380.907 352.54 381.834 352.54ZM393.967 359.6C393.367 359.6 392.791 359.507 392.237 359.32C391.691 359.133 391.197 358.863 390.757 358.51C390.317 358.163 389.957 357.743 389.677 357.25L391.897 356.15C392.104 356.543 392.394 356.833 392.767 357.02C393.147 357.213 393.551 357.31 393.977 357.31C394.477 357.31 394.924 357.22 395.317 357.04C395.711 356.867 396.014 356.607 396.227 356.26C396.447 355.92 396.551 355.493 396.537 354.98V351.91H396.837V343.7H398.947V355.02C398.947 355.293 398.934 355.553 398.907 355.8C398.887 356.053 398.851 356.3 398.797 356.54C398.637 357.24 398.331 357.813 397.877 358.26C397.424 358.713 396.861 359.05 396.187 359.27C395.521 359.49 394.781 359.6 393.967 359.6ZM393.757 354.8C392.764 354.8 391.897 354.55 391.157 354.05C390.417 353.55 389.844 352.87 389.437 352.01C389.031 351.15 388.827 350.18 388.827 349.1C388.827 348.007 389.031 347.033 389.437 346.18C389.851 345.32 390.434 344.643 391.187 344.15C391.941 343.65 392.827 343.4 393.847 343.4C394.874 343.4 395.734 343.65 396.427 344.15C397.127 344.643 397.657 345.32 398.017 346.18C398.377 347.04 398.557 348.013 398.557 349.1C398.557 350.173 398.377 351.143 398.017 352.01C397.657 352.87 397.121 353.55 396.407 354.05C395.694 354.55 394.811 354.8 393.757 354.8ZM394.127 352.64C394.774 352.64 395.294 352.493 395.687 352.2C396.087 351.9 396.377 351.483 396.557 350.95C396.744 350.417 396.837 349.8 396.837 349.1C396.837 348.393 396.744 347.777 396.557 347.25C396.377 346.717 396.094 346.303 395.707 346.01C395.321 345.71 394.821 345.56 394.207 345.56C393.561 345.56 393.027 345.72 392.607 346.04C392.187 346.353 391.877 346.78 391.677 347.32C391.477 347.853 391.377 348.447 391.377 349.1C391.377 349.76 391.474 350.36 391.667 350.9C391.867 351.433 392.171 351.857 392.577 352.17C392.984 352.483 393.501 352.64 394.127 352.64ZM405.955 342.06V339.85H408.365V342.06H405.955ZM405.955 354.5V343.7H408.365V354.5H405.955ZM418.831 354.5V349.3C418.831 348.96 418.808 348.583 418.761 348.17C418.714 347.757 418.604 347.36 418.431 346.98C418.264 346.593 418.011 346.277 417.671 346.03C417.338 345.783 416.884 345.66 416.311 345.66C416.004 345.66 415.701 345.71 415.401 345.81C415.101 345.91 414.828 346.083 414.581 346.33C414.341 346.57 414.148 346.903 414.001 347.33C413.854 347.75 413.781 348.29 413.781 348.95L412.351 348.34C412.351 347.42 412.528 346.587 412.881 345.84C413.241 345.093 413.768 344.5 414.461 344.06C415.154 343.613 416.008 343.39 417.021 343.39C417.821 343.39 418.481 343.523 419.001 343.79C419.521 344.057 419.934 344.397 420.241 344.81C420.548 345.223 420.774 345.663 420.921 346.13C421.068 346.597 421.161 347.04 421.201 347.46C421.248 347.873 421.271 348.21 421.271 348.47V354.5H418.831ZM411.341 354.5V343.7H413.491V347.05H413.781V354.5H411.341Z" fill="#FEFEFE"/>
</svg>
