<svg width="53" height="53" viewBox="0 0 53 53" fill="none" xmlns="http://www.w3.org/2000/svg">
<circle cx="26.2595" cy="26.2595" r="26.2595" fill="#F1EEF6"/>
<path d="M27.0318 14.7613C28.0534 14.7613 29.0349 14.9517 29.94 15.3003C29.3262 15.9188 28.8418 16.665 28.5288 17.4956C28.0514 17.3625 27.5491 17.2906 27.0318 17.2906C24.1954 17.2907 21.8128 19.4237 21.4995 22.2427L21.1909 25.0142C21.024 26.5163 20.5553 27.9681 19.814 29.2827L19.6616 29.5435L18.9556 30.7222C18.639 31.2498 18.4478 31.5703 18.3325 31.8101C18.326 31.8237 18.3214 31.8372 18.3159 31.8491C18.329 31.8506 18.3429 31.8546 18.3579 31.856C18.6228 31.8805 18.9966 31.8814 19.6118 31.8814H34.4517C35.0664 31.8814 35.4397 31.8804 35.7046 31.856C35.7194 31.8546 35.7337 31.8506 35.7466 31.8491C35.7412 31.8373 35.7374 31.8235 35.731 31.8101C35.6733 31.6901 35.5964 31.5498 35.4946 31.3736L35.1079 30.7222L34.4019 29.5435C33.7052 28.3822 33.2271 27.1061 32.9859 25.7779C33.4308 25.8786 33.8933 25.9341 34.3687 25.9341C34.7827 25.9341 35.1871 25.8929 35.5786 25.8159C35.7848 26.6683 36.1175 27.4872 36.5708 28.2427L37.2769 29.4204L37.6861 30.1099C37.8108 30.3264 37.9212 30.5292 38.0103 30.7144C38.1629 31.0319 38.3287 31.447 38.3306 31.9224L38.3208 32.1304C38.2594 32.7512 37.9716 33.3244 37.5171 33.7427L37.312 33.9116C36.8584 34.2486 36.3391 34.3374 35.938 34.3745C35.5289 34.4124 35.0164 34.4107 34.4517 34.4107H19.6118C19.0471 34.4107 18.5346 34.4124 18.1255 34.3745C17.7746 34.3421 17.333 34.2699 16.9243 34.0269L16.7515 33.9116C16.2509 33.5397 15.9077 32.9979 15.7827 32.3931L15.7427 32.1304C15.6871 31.5681 15.8787 31.0774 16.0532 30.7144C16.2313 30.3441 16.496 29.9048 16.7866 29.4204L17.4927 28.2427L17.7232 27.8355C18.2326 26.8724 18.5566 25.8205 18.6773 24.7349L18.9849 21.9634C19.4404 17.8634 22.9065 14.7614 27.0318 14.7613ZM33.1607 17.5689C34.1979 18.7695 34.8918 20.282 35.0786 21.9634L35.0855 22.0318C34.8586 22.1013 34.6183 22.1401 34.3687 22.1402L34.1187 22.1275C33.3105 22.0453 32.6206 21.5687 32.2398 20.8941C32.1774 20.7285 32.1078 20.567 32.0308 20.4097C31.9616 20.1833 31.9234 19.9429 31.9234 19.6939C31.9237 18.7831 32.4221 17.9896 33.1607 17.5689Z" fill="#30732D"/>
<path d="M23.4882 33.9591C23.6972 35.1292 24.1578 36.1631 24.7985 36.9006C25.4392 37.638 26.2242 38.0377 27.0318 38.0377C27.8394 38.0377 28.6244 37.638 29.2651 36.9006C29.9058 36.1631 30.3664 35.1292 30.5754 33.9591" stroke="#30732D" stroke-width="2.52941" stroke-linecap="round"/>
<circle cx="34.3691" cy="19.6948" r="3.07809" fill="#30732D" stroke="#30732D" stroke-width="1.26471"/>
</svg>
