<svg width="53" height="53" viewBox="0 0 53 53" fill="none" xmlns="http://www.w3.org/2000/svg">
<circle cx="26.2595" cy="26.2595" r="26.2595" fill="#F1EEF6"/>
<path d="M32 30.625H21C17.9624 30.625 15.5 33.0874 15.5 36.125V38.875H37.5V36.125C37.5 33.0874 35.0376 30.625 32 30.625Z" fill="#EAEAEA"/>
<path d="M26.5 25.125C29.5376 25.125 32 22.6626 32 19.625C32 16.5874 29.5376 14.125 26.5 14.125C23.4624 14.125 21 16.5874 21 19.625C21 22.6626 23.4624 25.125 26.5 25.125Z" fill="#EAEAEA"/>
<path d="M32 30.625H21C17.9624 30.625 15.5 33.0874 15.5 36.125V38.875H37.5V36.125C37.5 33.0874 35.0376 30.625 32 30.625Z" stroke="#30732D" stroke-width="2" stroke-linecap="round" stroke-linejoin="round"/>
<path d="M26.5 25.125C29.5376 25.125 32 22.6626 32 19.625C32 16.5874 29.5376 14.125 26.5 14.125C23.4624 14.125 21 16.5874 21 19.625C21 22.6626 23.4624 25.125 26.5 25.125Z" stroke="#30732D" stroke-width="2" stroke-linecap="round" stroke-linejoin="round"/>
</svg>
